<?xml version="1.0" encoding="utf-8"?>
<!-- Generator: Adobe Illustrator 22.0.1, SVG Export Plug-In . SVG Version: 6.00 Build 0)  -->
<svg version="1.1" id="ITMSA" xmlns="http://www.w3.org/2000/svg" xmlns:xlink="http://www.w3.org/1999/xlink" x="0px" y="0px"
	 viewBox="0 0 355.1 144" style="enable-background:new 0 0 355.1 144;" xml:space="preserve">
<style type="text/css">
	.st0{fill:#FFFFFF;}
</style>
<g>
	<rect x="32.7" y="49.9" class="st0" width="9" height="40.9"/>
	<polygon class="st0" points="73.3,58.2 85.7,58.2 85.7,90.8 94.8,90.8 94.8,58.2 107.2,58.2 107.2,49.9 73.3,49.9 	"/>
	<polygon class="st0" points="171.9,90.8 180.9,90.8 180.9,49.9 171.2,49.9 160.4,67.2 149.7,49.9 146.4,49.9 146.4,49.9 
		139.9,49.9 139.9,90.8 148.8,90.8 148.8,64.2 160.2,81.5 160.4,81.5 171.9,64.1 	"/>
	<path class="st0" d="M246.8,78.7v-0.1c0-7.1-4.4-12.3-13-12.3c-8,0-8.8-2.5-8.8-4.7c0-2.2,0.9-4.4,5.2-4.4c3.5,0,10.5,0,14.4,0v-8
		c-4.5,0-8.3,0-14.2,0c-8.4,0-14.3,4.9-14.3,12.3v0.1c0,8.1,5.2,12.5,13.6,12.5c7.5,0,8.2,2.1,8.2,4.3s-0.7,4.9-5.9,4.9
		c-4.7,0-12.1,0-15.9,0v8c4.8,0,9.5,0,15.7,0C240.6,91.4,246.8,86.8,246.8,78.7z"/>
	<polygon class="st0" points="300.6,60.4 313,90.8 322.4,90.8 304.9,49.6 296.5,49.6 279,90.8 288.2,90.8 	"/>
	<path class="st0" d="M149.7,33.5c0,0-9.7-33.5-71.7-33.5C20.1,0,0,49.9,0,49.9S20.1,8,74,8C125.3,8,140,33.5,140,33.5L149.7,33.5z"
		/>
	<path class="st0" d="M271.3,136c-75.8,0-90.5-28.9-90.5-28.9l-9.7,0c0,0,9.7,36.8,96.2,36.8c71.4,0,87.8-53.2,87.8-53.2
		S338.8,136,271.3,136z"/>
</g>
</svg>
