<svg id="SYMCOR_CC" data-name="SYMCOR CC" xmlns="http://www.w3.org/2000/svg" viewBox="0 0 333 137.13"><defs><style>.cls-1{font-size:23px;font-family:Arial;font-weight:700;font-style:italic;}.cls-1,.cls-2{fill:#fff;}</style></defs><title>symcor-logo</title><text class="cls-1" transform="translate(120.78 128.47)">case competition</text><g id="Layer_9" data-name="Layer 9"><path class="cls-2" d="M89,73a15,15,0,0,0-10.4-4.42c-3.11,0-6.23,1.56-6.23,5,0,7.71,15.75,7.36,15.75,18.7,0,10.62-8.85,15.32-18.44,15.32-4.07,0-10.12-.87-13.25-3.72l1-8.85a19,19,0,0,0,12.39,5.31c3.54,0,7.18-1.47,7.18-5.63,0-8-15.41-6.92-15.41-18.61,0-10.14,8.49-15.06,17.69-15.06,3.8,0,8.05.51,11.17,3L89.06,73"/><path class="cls-2" d="M120,107.31c-2,4.67-5.54,12.63-9.25,16.1a15.54,15.54,0,0,1-10.83,4,14.16,14.16,0,0,1-4.67-.6c-0.69-3.2-1.47-6.41-2.25-9.61a13.87,13.87,0,0,0,5.89,1.31c6.76,0,8.85-5.2,11.17-10.74l2.94-7.08c-1.91,2.42-3.63,4.25-6.83,4.25-5.63,0-6.14-6.41-6.23-10.62L99,62.1h10.39L110,90.76c0,1.77,0,4.58,2.51,4.58,3.2,0,5.31-6.76,6.14-9L128,62.1H138.8L120,107.31"/><path class="cls-2" d="M206.7,73.1l-6,33.85H190.61l5.11-29.43a22.74,22.74,0,0,0,.42-3.38,2.94,2.94,0,0,0-3.54-3.38,9.41,9.41,0,0,0-6.32,2.94c-8,7.54-9.43,23.37-11.17,33.25H165l5.11-29.43a23.59,23.59,0,0,0,.42-3.54A3,3,0,0,0,167,70.61a9.43,9.43,0,0,0-6.32,2.94c-8,7.63-9.43,23.37-11.17,33.34h-10L147.4,62h10l-2,11.7c4.07-7.18,9.7-12.39,18.35-12.39,4.58,0,8,1.77,8,6.76a28.31,28.31,0,0,1-.6,5.31c4.07-6.85,9.43-12.12,17.84-12.12,4.41,0,8.39,1.65,8.39,6.67a34,34,0,0,1-.6,5.11"/><path class="cls-2" d="M247.57,73.44a13.39,13.39,0,0,0-9.7-4.42c-9.79,0-13.94,11.61-13.94,19.82,0,5.8,2,10.62,8.48,10.62,4.76,0,8.32-2.16,11.77-5.31l1.65,6.32a22.9,22.9,0,0,1-16.7,7.08c-10.48,0-15.93-6.67-15.93-16.79,0-14.28,9.25-29.78,24.93-29.78a15.13,15.13,0,0,1,10.62,3.38l-1.17,9.09"/><path class="cls-2" d="M269.48,108c-11,0-16.53-6.07-16.53-17,0-14.54,7.87-30.08,24.24-30.08,11,0,16.44,6.14,16.44,17,0,14.46-7.87,30.08-24.15,30.08m6.23-39.21c-9.27,0-11.68,14.63-11.68,21.37,0,4.85,1,10.05,6.83,10.05,9.27,0,11.7-14.63,11.7-21.46,0-4.78-1-10-6.85-10h0Z"/><path class="cls-2" d="M330.59,72.24a11.43,11.43,0,0,0-4.49-1c-12.9,0-15.75,27.36-17.15,35.76H298.83L306.71,62h10l-1.91,11.41C318,66.95,322.19,61.5,330,61.5a8.85,8.85,0,0,1,3,.42l-2.42,10.39"/><polyline class="cls-2" points="51.41 44.05 95.48 10.86 84.67 0 51.41 44.05"/><polyline class="cls-2" points="47.74 44.05 53.24 16.5 42.24 16.5 47.74 44.05"/><polyline class="cls-2" points="51.41 47.72 78.95 53.22 78.95 42.21 51.41 47.72"/><polyline class="cls-2" points="44.06 51.39 0 84.57 10.81 95.44 44.06 51.39"/><polyline class="cls-2" points="47.73 51.39 42.24 78.94 53.24 78.94 47.73 51.39"/><polyline class="cls-2" points="44.06 47.72 16.52 42.22 16.52 53.23 44.06 47.72"/></g></svg>